<svg xmlns="http://www.w3.org/2000/svg" viewBox="0 0 128 128">
  <path fill="#CC2927" d="M64 8c-30.9 0-56 11.2-56 25v62c0 13.8 25.1 25 56 25s56-11.2 56-25V33c0-13.8-25.1-25-56-25z"/>
  <ellipse fill="#FFF" cx="64" cy="33" rx="48" ry="17"/>
  <path fill="#CC2927" d="M64 58c-26.5 0-48-7.6-48-17v30c0 9.4 21.5 17 48 17s48-7.6 48-17V41c0 9.4-21.5 17-48 17z"/>
  <ellipse fill="#FFF" opacity=".3" cx="64" cy="71" rx="48" ry="17"/>
  <path fill="#7A1416" d="M112 71c0 9.4-21.5 17-48 17S16 80.4 16 71v24c0 9.4 21.5 17 48 17s48-7.6 48-17V71z"/>
</svg>
